<svg width="40" height="40" viewBox="0 0 40 40" fill="none" xmlns="http://www.w3.org/2000/svg">
<rect width="40" height="40" rx="10" fill="#0076FF"/>
<path fill-rule="evenodd" clip-rule="evenodd" d="M23.5018 21.8986C23.8868 21.6628 24.3216 21.3965 24.8701 21.5204C25.3669 21.6317 27.3685 23.328 27.8322 23.8331C28.1371 24.1643 28.3052 24.5065 28.3324 24.8486C28.3774 26.1919 26.5134 27.8772 26.2 28.0682C25.7847 28.3859 25.3024 28.5461 24.7589 28.5461C24.2043 28.5461 23.587 28.3796 22.9118 28.0447C19.2534 26.4236 13.6061 20.4035 12.1293 16.5475C11.5162 15.112 11.512 13.929 12.1183 13.0383C12.3612 12.621 13.8889 10.7229 15.1245 10.7782C15.4523 10.808 15.7725 10.9872 16.085 11.3122C16.5589 11.8064 18.1503 13.9398 18.2547 14.4693C18.3694 15.0586 18.1172 15.5256 17.8947 15.9375L17.8944 15.938C17.6661 16.3614 17.4684 16.7279 17.6272 17.1947C18.5273 19.5454 20.1077 21.2299 22.3216 22.1929C22.753 22.3595 23.0961 22.1486 23.4927 21.9042L23.5018 21.8986ZM22.3167 10.7818C21.9946 10.7385 21.7051 10.9906 21.6701 11.3334C21.6344 11.6762 21.8666 11.9843 22.187 12.0225C24.8224 12.3356 26.8701 14.5174 27.166 17.3297C27.2001 17.6487 27.453 17.8846 27.7473 17.8846C27.7687 17.8846 27.791 17.8829 27.8133 17.8804C28.1345 17.8422 28.3659 17.5333 28.3294 17.1896C27.9715 13.7935 25.4992 11.1578 22.3167 10.7818ZM24.5945 17.3456C24.6531 17.6645 24.9138 17.8847 25.2076 17.8847C25.2475 17.8847 25.2874 17.8801 25.3281 17.8729C25.6669 17.8013 25.8877 17.4516 25.8214 17.0901C25.4835 15.2401 24.1445 13.8132 22.4115 13.4527C22.0745 13.3902 21.745 13.6176 21.6779 13.9799C21.6126 14.3414 21.8342 14.692 22.1721 14.7618C23.4041 15.0173 24.3542 16.032 24.5945 17.3456Z" fill="white"/>
</svg>
