<svg width="40" height="40" viewBox="0 0 40 40" fill="none" xmlns="http://www.w3.org/2000/svg">
<rect width="40" height="40" rx="10" fill="#0076FF"/>
<path fill-rule="evenodd" clip-rule="evenodd" d="M16.5083 10.777H23.4925C26.0667 10.777 27.5 12.3585 27.5 15.0683V24.2463C27.5 27.0006 26.0667 28.5466 23.4925 28.5466H16.5083C13.975 28.5466 12.5 27.0006 12.5 24.2463V15.0683C12.5 12.3585 13.975 10.777 16.5083 10.777ZM16.7334 14.9173V14.9084H19.2242C19.5834 14.9084 19.875 15.2194 19.875 15.6006C19.875 15.9924 19.5834 16.3033 19.2242 16.3033H16.7334C16.3742 16.3033 16.0834 15.9924 16.0834 15.6103C16.0834 15.2283 16.3742 14.9173 16.7334 14.9173ZM16.7334 20.3192H23.2667C23.625 20.3192 23.9167 20.0083 23.9167 19.6262C23.9167 19.2442 23.625 18.9323 23.2667 18.9323H16.7334C16.3742 18.9323 16.0834 19.2442 16.0834 19.6262C16.0834 20.0083 16.3742 20.3192 16.7334 20.3192ZM16.7333 24.3796H23.2667C23.5992 24.3441 23.85 24.0411 23.85 23.6866C23.85 23.3223 23.5992 23.0203 23.2667 22.9847H16.7333C16.4833 22.9581 16.2417 23.0825 16.1083 23.3135C15.975 23.5356 15.975 23.8288 16.1083 24.0598C16.2417 24.2819 16.4833 24.4152 16.7333 24.3796Z" fill="white"/>
</svg>
