<svg width="40" height="40" viewBox="0 0 40 40" fill="none" xmlns="http://www.w3.org/2000/svg">
<rect width="40" height="40" rx="10" fill="#0076FF"/>
<path fill-rule="evenodd" clip-rule="evenodd" d="M23.2082 11.2218C23.734 11.2218 24.259 11.3009 24.7582 11.4795C27.834 12.5456 28.9423 16.1439 28.0165 19.289C27.4915 20.8962 26.6332 22.3631 25.509 23.5616C23.8999 25.223 22.134 26.6979 20.2332 27.9684L20.0249 28.1025L19.8082 27.9595C17.9007 26.6979 16.1249 25.223 14.5007 23.5527C13.384 22.3542 12.5249 20.8962 11.9915 19.289C11.0499 16.1439 12.1582 12.5456 15.2674 11.4608C15.509 11.372 15.7582 11.3098 16.0082 11.2751H16.1082C16.3424 11.2387 16.5749 11.2218 16.8082 11.2218H16.8999C17.4249 11.2387 17.9332 11.3364 18.4257 11.515H18.4749C18.5082 11.5319 18.5332 11.5506 18.5499 11.5674C18.734 11.6305 18.9082 11.7016 19.0749 11.7993L19.3915 11.9504C19.468 11.9939 19.5539 12.0603 19.6282 12.1178C19.6752 12.1542 19.7175 12.187 19.7499 12.208C19.7634 12.2166 19.7773 12.2252 19.7912 12.2338C19.8627 12.2783 19.9371 12.3246 19.9999 12.3759C20.9257 11.6216 22.0499 11.2129 23.2082 11.2218ZM25.4249 17.6187C25.7666 17.609 26.0582 17.3167 26.0832 16.9426V16.8369C26.1082 15.5922 25.4007 14.4647 24.3249 14.0294C23.9832 13.9041 23.6082 14.1004 23.4832 14.4736C23.3666 14.8467 23.5499 15.2554 23.8999 15.3878C24.4341 15.601 24.7916 16.1617 24.7916 16.7827V16.8102C24.7757 17.0137 24.8332 17.21 24.9499 17.3611C25.0666 17.5121 25.2416 17.6001 25.4249 17.6187Z" fill="white"/>
</svg>
