<svg width="50" height="39" viewBox="0 0 50 39" fill="none" xmlns="http://www.w3.org/2000/svg">
<path d="M17.8539 17.1C19.7206 17.9667 21.1539 19.2667 22.1539 21C23.2206 22.6667 23.7539 24.6333 23.7539 26.9C23.7539 30.2333 22.6872 32.9333 20.5539 35C18.4206 37.0667 15.6872 38.1 12.3539 38.1C9.02057 38.1 6.28724 37.0667 4.15391 35C2.02057 32.9333 0.953906 30.2333 0.953906 26.9C0.953906 25.3667 1.15391 23.8333 1.55391 22.3C1.95391 20.7667 2.85391 18.5 4.25391 15.5L10.6539 0.799996H22.5539L17.8539 17.1ZM44.0539 17.1C45.9206 17.9667 47.3539 19.2667 48.3539 21C49.4206 22.6667 49.9539 24.6333 49.9539 26.9C49.9539 30.2333 48.8872 32.9333 46.7539 35C44.6206 37.0667 41.8872 38.1 38.5539 38.1C35.2206 38.1 32.4872 37.0667 30.3539 35C28.2206 32.9333 27.1539 30.2333 27.1539 26.9C27.1539 25.3667 27.3539 23.8333 27.7539 22.3C28.1539 20.7667 29.0539 18.5 30.4539 15.5L36.8539 0.799996H48.7539L44.0539 17.1Z" fill="#333333"/>
</svg>
